<svg xmlns="http://www.w3.org/2000/svg" version="1.1" xmlns:xlink="http://www.w3.org/1999/xlink" xmlns:svgjs="http://svgjs.dev/svgjs" width="1000" height="185" viewBox="0 0 1000 185"><g transform="matrix(1,0,0,1,-6.239940850247706,-26.049834317286766)"><svg viewBox="0 0 398 74" data-background-color="#ffffff" preserveAspectRatio="xMidYMid meet" height="185" width="1000" xmlns="http://www.w3.org/2000/svg" xmlns:xlink="http://www.w3.org/1999/xlink"><g id="tight-bounds" transform="matrix(1,0,0,1,2.4834964583985766,10.419933726914707)"><svg viewBox="0 0 395.52 63.749937686384705" height="63.749937686384705" width="395.52"><g><svg viewBox="0 0 522.8631201098618 84.27510954063605" height="63.749937686384705" width="395.52"><g><rect width="6.980497221848547" height="84.27510954063605" x="102.08906995123692" y="0" fill="#2ecc40" opacity="1" stroke-width="0" stroke="transparent" fill-opacity="1" class="rect-in-0" data-fill-palette-color="primary" rx="1%" id="in-0" data-palette-color="#2ecc40"></rect></g><g transform="matrix(1,0,0,1,127.34312010986177,0.20963957597172822)"><svg viewBox="0 0 395.52000000000004 83.8558303886926" height="83.8558303886926" width="395.52000000000004"><g><svg viewBox="0 0 395.52000000000004 83.8558303886926" height="83.8558303886926" width="395.52000000000004"><g><svg viewBox="0 0 395.52000000000004 83.8558303886926" height="83.8558303886926" width="395.52000000000004"><g transform="matrix(1,0,0,1,0,0)"><svg width="395.52000000000004" viewBox="1.5 -35.5 183.95000000000002 36" height="83.8558303886926" data-palette-color="#2ecc40"><svg></svg><g class="undefined-text-0" data-fill-palette-color="primary" id="text-0"><path d="M29.3-35.1v0c0.833 0 1.56 0.277 2.18 0.83 0.613 0.547 0.92 1.237 0.92 2.07v0c0 0.433-0.1 0.883-0.3 1.35v0l-12.35 28.9c-0.3 0.667-0.723 1.157-1.27 1.47-0.553 0.32-1.113 0.48-1.68 0.48v0c-0.533-0.033-1.05-0.21-1.55-0.53-0.5-0.313-0.883-0.77-1.15-1.37v0l-12.35-29c-0.1-0.2-0.167-0.41-0.2-0.63-0.033-0.213-0.05-0.42-0.05-0.62v0c0-0.967 0.35-1.71 1.05-2.23 0.7-0.513 1.367-0.77 2-0.77v0c1.267 0 2.183 0.65 2.75 1.95v0l10.95 25.75-1.75 0.05 10.05-25.8c0.567-1.267 1.483-1.9 2.75-1.9zM43.9-31.95v28.9c0 0.867-0.317 1.59-0.95 2.17-0.633 0.587-1.367 0.88-2.2 0.88v0c-0.933 0-1.683-0.293-2.25-0.88-0.567-0.58-0.85-1.303-0.85-2.17v0-28.9c0-0.867 0.3-1.593 0.9-2.18 0.6-0.58 1.367-0.87 2.3-0.87v0c0.8 0 1.51 0.29 2.13 0.87 0.613 0.587 0.92 1.313 0.92 2.18zM62.65 0.5v0c-2.333 0-4.433-0.293-6.3-0.88-1.867-0.58-3.65-1.603-5.35-3.07v0c-0.433-0.367-0.767-0.783-1-1.25-0.233-0.467-0.35-0.933-0.35-1.4v0c0-0.767 0.277-1.443 0.83-2.03 0.547-0.58 1.237-0.87 2.07-0.87v0c0.633 0 1.2 0.2 1.7 0.6v0c1.267 1.033 2.523 1.817 3.77 2.35 1.253 0.533 2.797 0.8 4.63 0.8v0c1.233 0 2.367-0.193 3.4-0.58 1.033-0.38 1.867-0.897 2.5-1.55 0.633-0.647 0.95-1.387 0.95-2.22v0c0-1-0.3-1.85-0.9-2.55-0.6-0.7-1.517-1.293-2.75-1.78-1.233-0.48-2.8-0.853-4.7-1.12v0c-1.8-0.267-3.383-0.677-4.75-1.23-1.367-0.547-2.507-1.247-3.42-2.1-0.92-0.847-1.613-1.847-2.08-3-0.467-1.147-0.7-2.437-0.7-3.87v0c0-2.167 0.56-4.017 1.68-5.55 1.113-1.533 2.62-2.7 4.52-3.5 1.9-0.8 4-1.2 6.3-1.2v0c2.167 0 4.173 0.327 6.02 0.98 1.853 0.647 3.363 1.47 4.53 2.47v0c0.967 0.767 1.45 1.65 1.45 2.65v0c0 0.733-0.283 1.4-0.85 2-0.567 0.6-1.233 0.9-2 0.9v0c-0.5 0-0.95-0.15-1.35-0.45v0c-0.533-0.467-1.25-0.91-2.15-1.33-0.9-0.413-1.85-0.763-2.85-1.05-1-0.28-1.933-0.42-2.8-0.42v0c-1.433 0-2.64 0.183-3.62 0.55-0.987 0.367-1.73 0.867-2.23 1.5-0.5 0.633-0.75 1.367-0.75 2.2v0c0 1 0.293 1.823 0.88 2.47 0.58 0.653 1.42 1.17 2.52 1.55 1.1 0.387 2.417 0.73 3.95 1.03v0c2 0.367 3.757 0.8 5.27 1.3 1.52 0.5 2.78 1.14 3.78 1.92 1 0.787 1.75 1.77 2.25 2.95 0.5 1.187 0.75 2.63 0.75 4.33v0c0 2.167-0.6 4.033-1.8 5.6-1.2 1.567-2.777 2.767-4.73 3.6-1.947 0.833-4.053 1.25-6.32 1.25zM87.5-31.95v28.9c0 0.867-0.317 1.59-0.95 2.17-0.633 0.587-1.367 0.88-2.2 0.88v0c-0.933 0-1.683-0.293-2.25-0.88-0.567-0.58-0.85-1.303-0.85-2.17v0-28.9c0-0.867 0.3-1.593 0.9-2.18 0.6-0.58 1.367-0.87 2.3-0.87v0c0.8 0 1.51 0.29 2.13 0.87 0.613 0.587 0.92 1.313 0.92 2.18zM98.05-35h11.4c1.733 0 3.36 0.5 4.88 1.5 1.513 1 2.737 2.35 3.67 4.05 0.933 1.7 1.4 3.6 1.4 5.7v0c0 2.067-0.467 3.95-1.4 5.65-0.933 1.7-2.157 3.057-3.67 4.07-1.52 1.02-3.147 1.53-4.88 1.53v0h-9.2l0.5-0.9v10.35c0 0.867-0.267 1.59-0.8 2.17-0.533 0.587-1.233 0.88-2.1 0.88v0c-0.833 0-1.517-0.293-2.05-0.88-0.533-0.58-0.8-1.303-0.8-2.17v0-28.9c0-0.867 0.293-1.593 0.88-2.18 0.58-0.58 1.303-0.87 2.17-0.87zM100.2-18.2h9.25c0.633 0 1.25-0.267 1.85-0.8 0.6-0.533 1.1-1.227 1.5-2.08 0.4-0.847 0.6-1.737 0.6-2.67v0c0-0.967-0.2-1.867-0.6-2.7-0.4-0.833-0.9-1.51-1.5-2.03-0.6-0.513-1.217-0.77-1.85-0.77v0h-9.3l0.6-0.9v12.75zM157.35-17.5v0c0 2.5-0.417 4.833-1.25 7-0.833 2.167-2.007 4.073-3.52 5.72-1.52 1.653-3.32 2.947-5.4 3.88-2.087 0.933-4.363 1.4-6.83 1.4v0c-2.467 0-4.733-0.467-6.8-1.4-2.067-0.933-3.857-2.227-5.37-3.88-1.52-1.647-2.697-3.553-3.53-5.72-0.833-2.167-1.25-4.5-1.25-7v0c0-2.5 0.417-4.833 1.25-7 0.833-2.167 2.01-4.077 3.53-5.73 1.513-1.647 3.303-2.937 5.37-3.87 2.067-0.933 4.333-1.4 6.8-1.4v0c2.467 0 4.743 0.467 6.83 1.4 2.08 0.933 3.88 2.223 5.4 3.87 1.513 1.653 2.687 3.563 3.52 5.73 0.833 2.167 1.25 4.5 1.25 7zM150.85-17.5v0c0-2.233-0.45-4.26-1.35-6.08-0.9-1.813-2.133-3.253-3.7-4.32-1.567-1.067-3.383-1.6-5.45-1.6v0c-2.067 0-3.883 0.533-5.45 1.6-1.567 1.067-2.793 2.5-3.68 4.3-0.88 1.8-1.32 3.833-1.32 6.1v0c0 2.233 0.44 4.257 1.32 6.07 0.887 1.82 2.113 3.263 3.68 4.33 1.567 1.067 3.383 1.6 5.45 1.6v0c2.067 0 3.883-0.533 5.45-1.6 1.567-1.067 2.8-2.51 3.7-4.33 0.9-1.813 1.35-3.837 1.35-6.07zM168.25-5.85h14.15c0.867 0 1.593 0.273 2.18 0.82 0.58 0.553 0.87 1.263 0.87 2.13v0c0 0.833-0.29 1.523-0.87 2.07-0.587 0.553-1.313 0.83-2.18 0.83v0h-16.25c-0.867 0-1.59-0.293-2.17-0.88-0.587-0.58-0.88-1.303-0.88-2.17v0-28.9c0-0.867 0.3-1.593 0.9-2.18 0.6-0.58 1.367-0.87 2.3-0.87v0c0.8 0 1.51 0.29 2.13 0.87 0.613 0.587 0.92 1.313 0.92 2.18v0 26.95z" fill="#2ecc40" fill-rule="nonzero" stroke="none" stroke-width="1" stroke-linecap="butt" stroke-linejoin="miter" stroke-miterlimit="10" stroke-dasharray="" stroke-dashoffset="0" font-family="none" font-weight="none" font-size="none" text-anchor="none" style="mix-blend-mode: normal" data-fill-palette-color="primary" opacity="1"></path></g></svg></g></svg></g></svg></g></svg></g><g transform="matrix(1,0,0,1,0,0.20963957597172822)"><svg viewBox="0 0 83.81551701446062 83.8558303886926" height="83.8558303886926" width="83.81551701446062"><g><svg xmlns="http://www.w3.org/2000/svg" data-name="Layer 1" viewBox="4.990379561827401 4.984983274720134 32.010413134205685 32.02580942131296" x="0" y="0" height="83.8558303886926" width="83.81551701446062" class="icon-icon-0" data-fill-palette-color="accent" id="icon-0"><path d="M36.71 34.29l-6-6A1 1 0 0 0 30 28a1 1 0 0 0-0.46 0.13l-3.39-3.39a12 12 0 1 0-20.7-4.47 1 1 0 0 0 1.92-0.54 10 10 0 1 1 16 5 1 1 0 1 0 1.27 1.54l0.11-0.1 3.38 3.38a1 1 0 0 0 0.17 1.17l6 6a1 1 0 0 0 1.41 0l1-1a1 1 0 0 0 0-1.41Z" fill="#2ecc40" data-fill-palette-color="accent"></path><path d="M14 19a7 7 0 0 0-7 7 9.62 9.62 0 0 0 1 4.12 19.83 19.83 0 0 0 3.33 4.72 23 23 0 0 0 2 1.93 1 1 0 0 0 1.28 0 25.08 25.08 0 0 0 3.12-3.27 18.26 18.26 0 0 0 2.18-3.39A9.72 9.72 0 0 0 21 26h0V26A7 7 0 0 0 14 19Zm5 7a7.76 7.76 0 0 1-0.86 3.25 18.34 18.34 0 0 1-3 4.24c-0.45 0.49-0.84 0.88-1.16 1.17a23.47 23.47 0 0 1-2.35-2.56 15.47 15.47 0 0 1-1.85-2.94A7.56 7.56 0 0 1 9 26a5 5 0 0 1 8.53-3.55A4.9 4.9 0 0 1 19 26Z" fill="#2ecc40" data-fill-palette-color="accent"></path><circle cx="14" cy="25" r="2.0" fill="#2ecc40" data-fill-palette-color="accent"></circle><path d="M24 18a1 1 0 0 0 1-1 8 8 0 0 0-8-8 1 1 0 0 0 0 2 6 6 0 0 1 6 6A1 1 0 0 0 24 18Z" fill="#2ecc40" data-fill-palette-color="accent"></path></svg></g></svg></g></svg></g><defs></defs></svg><rect width="395.52" height="63.749937686384705" fill="none" stroke="none" visibility="hidden"></rect></g></svg></g></svg>